<?xml version="1.0" encoding="UTF-8" standalone="no"?>
<!-- Generator: Adobe Illustrator 16.0.4, SVG Export Plug-In . SVG Version: 6.00 Build 0)  -->

<svg
   xmlns:dc="http://purl.org/dc/elements/1.1/"
   xmlns:cc="http://creativecommons.org/ns#"
   xmlns:rdf="http://www.w3.org/1999/02/22-rdf-syntax-ns#"
   xmlns:svg="http://www.w3.org/2000/svg"
   xmlns="http://www.w3.org/2000/svg"
   xmlns:sodipodi="http://sodipodi.sourceforge.net/DTD/sodipodi-0.dtd"
   xmlns:inkscape="http://www.inkscape.org/namespaces/inkscape"
   version="1.1"
   id="Capa_1"
   x="0px"
   y="0px"
   width="47.416"
   height="81.309998"
   viewBox="0 0 47.416 81.309998"
   enable-background="new 0 0 216 146"
   xml:space="preserve"
   inkscape:version="0.91 r"
   sodipodi:docname="arrow-right.svg"><metadata
     id="metadata9"><rdf:RDF><cc:Work
         rdf:about=""><dc:format>image/svg+xml</dc:format><dc:type
           rdf:resource="http://purl.org/dc/dcmitype/StillImage" /><dc:title></dc:title></cc:Work></rdf:RDF></metadata><defs
     id="defs7" /><sodipodi:namedview
     pagecolor="#ffffff"
     bordercolor="#666666"
     borderopacity="1"
     objecttolerance="10"
     gridtolerance="10"
     guidetolerance="10"
     inkscape:pageopacity="0"
     inkscape:pageshadow="2"
     inkscape:window-width="1366"
     inkscape:window-height="707"
     id="namedview5"
     showgrid="false"
     inkscape:zoom="1.1328129"
     inkscape:cx="-7.6234092"
     inkscape:cy="90.76326"
     inkscape:window-x="0"
     inkscape:window-y="32"
     inkscape:window-maximized="1"
     inkscape:current-layer="Capa_1"
     fit-margin-top="0"
     fit-margin-left="0"
     fit-margin-right="0"
     fit-margin-bottom="0" /><path
     d="M 46.603,38.781 8.636,0.815 C 8.093,0.272 7.468,0 6.762,0 6.056,0 5.431,0.272 4.888,0.815 L 0.815,4.889 C 0.271,5.432 0,6.056 0,6.763 0,7.47 0.271,8.094 0.815,8.637 L 32.834,40.656 0.815,72.676 C 0.271,73.219 0,73.844 0,74.549 c 0,0.707 0.271,1.332 0.815,1.875 l 4.073,4.072 c 0.543,0.544 1.168,0.814 1.874,0.814 0.706,0 1.331,-0.271 1.874,-0.814 L 46.602,42.53 c 0.543,-0.543 0.814,-1.168 0.814,-1.874 0,-0.706 -0.27,-1.331 -0.813,-1.875 z"
     id="path3"
     style="fill:#999999;fill-opacity:1"
     inkscape:connector-curvature="0" /></svg>