<?xml version="1.0" encoding="UTF-8" standalone="no"?>
<!-- Generator: Adobe Illustrator 16.0.4, SVG Export Plug-In . SVG Version: 6.00 Build 0)  -->

<svg
   xmlns:dc="http://purl.org/dc/elements/1.1/"
   xmlns:cc="http://creativecommons.org/ns#"
   xmlns:rdf="http://www.w3.org/1999/02/22-rdf-syntax-ns#"
   xmlns:svg="http://www.w3.org/2000/svg"
   xmlns="http://www.w3.org/2000/svg"
   xmlns:sodipodi="http://sodipodi.sourceforge.net/DTD/sodipodi-0.dtd"
   xmlns:inkscape="http://www.inkscape.org/namespaces/inkscape"
   version="1.1"
   id="Capa_1"
   x="0px"
   y="0px"
   width="216px"
   height="146px"
   viewBox="0 0 216 146"
   enable-background="new 0 0 216 146"
   xml:space="preserve"
   inkscape:version="0.91 r"
   sodipodi:docname="twitter.svg"><metadata
     id="metadata9"><rdf:RDF><cc:Work
         rdf:about=""><dc:format>image/svg+xml</dc:format><dc:type
           rdf:resource="http://purl.org/dc/dcmitype/StillImage" /><dc:title></dc:title></cc:Work></rdf:RDF></metadata><defs
     id="defs7" /><sodipodi:namedview
     pagecolor="#ffffff"
     bordercolor="#666666"
     borderopacity="1"
     objecttolerance="10"
     gridtolerance="10"
     guidetolerance="10"
     inkscape:pageopacity="0"
     inkscape:pageshadow="2"
     inkscape:window-width="782"
     inkscape:window-height="480"
     id="namedview5"
     showgrid="false"
     inkscape:zoom="1.5648148"
     inkscape:cx="108"
     inkscape:cy="73"
     inkscape:window-x="0"
     inkscape:window-y="32"
     inkscape:window-maximized="0"
     inkscape:current-layer="Capa_1" /><path
     d="M172.201,33.241c-5.051,2.173-10.104,3.53-15.153,4.075c5.703-3.422,9.56-8.256,11.57-14.502  c-5.216,3.095-10.783,5.213-16.703,6.354c-5.215-5.54-11.623-8.311-19.228-8.311c-7.278,0-13.483,2.566-18.617,7.699  c-5.133,5.133-7.699,11.338-7.699,18.616c0,1.955,0.217,3.965,0.652,6.029c-10.755-0.543-20.844-3.245-30.268-8.106  c-9.424-4.862-17.422-11.339-23.994-19.432c-2.39,4.073-3.585,8.5-3.585,13.28c0,4.508,1.059,8.691,3.178,12.547  c2.118,3.856,4.97,6.979,8.555,9.369c-4.237-0.163-8.202-1.277-11.895-3.341v0.326c0,6.355,1.996,11.935,5.988,16.743  c3.992,4.808,9.03,7.835,15.113,9.084c-2.281,0.597-4.59,0.896-6.925,0.896c-1.521,0-3.178-0.136-4.97-0.406  c1.684,5.268,4.78,9.599,9.288,12.994c4.508,3.396,9.614,5.146,15.317,5.256c-9.559,7.494-20.449,11.242-32.67,11.242  c-2.336,0-4.454-0.107-6.355-0.325c12.221,7.875,25.691,11.812,40.411,11.812c9.342,0,18.114-1.479,26.314-4.439  c8.203-2.96,15.209-6.925,21.021-11.896c5.811-4.969,10.822-10.686,15.031-17.15c4.209-6.463,7.345-13.211,9.41-20.245  c2.064-7.035,3.096-14.081,3.096-21.143c0-1.521-0.027-2.661-0.082-3.422C164.162,43.099,168.562,38.563,172.201,33.241z"
     id="path3"
     style="fill:#ffffff" /></svg>