<?xml version="1.0" encoding="UTF-8" standalone="no"?>
<!-- Generator: Adobe Illustrator 16.0.4, SVG Export Plug-In . SVG Version: 6.00 Build 0)  -->

<svg
   xmlns:dc="http://purl.org/dc/elements/1.1/"
   xmlns:cc="http://creativecommons.org/ns#"
   xmlns:rdf="http://www.w3.org/1999/02/22-rdf-syntax-ns#"
   xmlns:svg="http://www.w3.org/2000/svg"
   xmlns="http://www.w3.org/2000/svg"
   xmlns:sodipodi="http://sodipodi.sourceforge.net/DTD/sodipodi-0.dtd"
   xmlns:inkscape="http://www.inkscape.org/namespaces/inkscape"
   version="1.1"
   id="Capa_1"
   x="0px"
   y="0px"
   width="146"
   height="114.714"
   viewBox="0 0 146 114.714"
   enable-background="new 0 0 216 146"
   xml:space="preserve"
   inkscape:version="0.91 r"
   sodipodi:docname="envelope.svg"><metadata
     id="metadata13"><rdf:RDF><cc:Work
         rdf:about=""><dc:format>image/svg+xml</dc:format><dc:type
           rdf:resource="http://purl.org/dc/dcmitype/StillImage" /><dc:title></dc:title></cc:Work></rdf:RDF></metadata><defs
     id="defs11" /><sodipodi:namedview
     pagecolor="#ffffff"
     bordercolor="#666666"
     borderopacity="1"
     objecttolerance="10"
     gridtolerance="10"
     guidetolerance="10"
     inkscape:pageopacity="0"
     inkscape:pageshadow="2"
     inkscape:window-width="1366"
     inkscape:window-height="707"
     id="namedview9"
     showgrid="false"
     inkscape:zoom="2.2656258"
     inkscape:cx="72.05785"
     inkscape:cy="-89.416379"
     inkscape:window-x="0"
     inkscape:window-y="32"
     inkscape:window-maximized="1"
     inkscape:current-layer="Capa_1"
     fit-margin-top="0"
     fit-margin-left="0"
     fit-margin-right="0"
     fit-margin-bottom="0" /><g
     id="g3"
     style="fill:#dfdfdf;fill-opacity:1"
     transform="translate(-35,-15.643)"><path
       d="m 49.013,51.003 c 1.847,1.303 7.414,5.174 16.702,11.61 9.288,6.436 16.403,11.392 21.346,14.867 0.543,0.381 1.697,1.209 3.462,2.485 1.765,1.277 3.232,2.31 4.399,3.097 1.168,0.787 2.58,1.67 4.237,2.647 1.657,0.977 3.219,1.711 4.685,2.198 1.467,0.49 2.825,0.733 4.074,0.733 l 0.082,0 0.082,0 c 1.249,0 2.607,-0.243 4.074,-0.733 1.466,-0.487 3.029,-1.222 4.685,-2.198 1.656,-0.978 3.068,-1.86 4.236,-2.647 1.168,-0.787 2.634,-1.82 4.399,-3.097 1.765,-1.277 2.92,-2.104 3.463,-2.485 4.996,-3.476 17.707,-12.302 38.129,-26.479 3.965,-2.769 7.277,-6.11 9.939,-10.021 2.663,-3.909 3.993,-8.01 3.993,-12.301 0,-3.585 -1.291,-6.654 -3.871,-9.207 -2.58,-2.553 -5.636,-3.829 -9.165,-3.829 l -119.929,0 c -4.182,0 -7.4,1.412 -9.654,4.236 C 36.127,22.704 35,26.235 35,30.471 c 0,3.422 1.494,7.13 4.481,11.122 2.987,3.992 6.165,7.129 9.532,9.41 z"
       id="path5"
       style="fill:#dfdfdf;fill-opacity:1"
       inkscape:connector-curvature="0" /><path
       d="m 172.852,59.72 c -17.814,12.057 -31.34,21.427 -40.572,28.108 -3.096,2.281 -5.608,4.061 -7.537,5.336 -1.928,1.277 -4.494,2.58 -7.699,3.911 -3.204,1.331 -6.191,1.996 -8.961,1.996 l -0.083,0 -0.082,0 c -2.77,0 -5.758,-0.665 -8.962,-1.996 -3.204,-1.331 -5.771,-2.634 -7.699,-3.911 -1.928,-1.275 -4.44,-3.055 -7.536,-5.336 C 76.388,82.451 62.891,73.081 43.229,59.72 40.133,57.657 37.39,55.293 35,52.632 l 0,64.688 c 0,3.586 1.276,6.654 3.829,9.207 2.553,2.554 5.622,3.83 9.207,3.83 l 119.929,0 c 3.584,0 6.653,-1.276 9.206,-3.83 2.554,-2.554 3.829,-5.621 3.829,-9.207 l 0,-64.688 c -2.336,2.606 -5.051,4.97 -8.148,7.088 z"
       id="path7"
       style="fill:#dfdfdf;fill-opacity:1"
       inkscape:connector-curvature="0" /></g></svg>