<?xml version="1.0" encoding="UTF-8" standalone="no"?>
<!-- Generator: Adobe Illustrator 18.0.0, SVG Export Plug-In . SVG Version: 6.00 Build 0)  -->

<svg
   xmlns:dc="http://purl.org/dc/elements/1.1/"
   xmlns:cc="http://creativecommons.org/ns#"
   xmlns:rdf="http://www.w3.org/1999/02/22-rdf-syntax-ns#"
   xmlns:svg="http://www.w3.org/2000/svg"
   xmlns="http://www.w3.org/2000/svg"
   xmlns:sodipodi="http://sodipodi.sourceforge.net/DTD/sodipodi-0.dtd"
   xmlns:inkscape="http://www.inkscape.org/namespaces/inkscape"
   version="1.1"
   id="Layer_1"
   x="0px"
   y="0px"
   viewBox="0 0 719.98847 239.95781"
   enable-background="new 0 0 1660 900"
   xml:space="preserve"
   inkscape:version="0.91 r"
   sodipodi:docname="nils-austrums-logo.svg"
   width="719.98846"
   height="239.95781"
   inkscape:export-filename="/media/uv/data/borg/nils/spaceskce.png"
   inkscape:export-xdpi="54"
   inkscape:export-ydpi="54"><metadata
     id="metadata307"><rdf:RDF><cc:Work
         rdf:about=""><dc:format>image/svg+xml</dc:format><dc:type
           rdf:resource="http://purl.org/dc/dcmitype/StillImage" /><dc:title></dc:title></cc:Work></rdf:RDF></metadata><defs
     id="defs305" /><sodipodi:namedview
     pagecolor="#ffffff"
     bordercolor="#666666"
     borderopacity="1"
     objecttolerance="10"
     gridtolerance="10"
     guidetolerance="10"
     inkscape:pageopacity="0"
     inkscape:pageshadow="2"
     inkscape:window-width="1366"
     inkscape:window-height="709"
     id="namedview303"
     showgrid="false"
     inkscape:zoom="0.27858303"
     inkscape:cx="364.35936"
     inkscape:cy="480.46764"
     inkscape:window-x="0"
     inkscape:window-y="32"
     inkscape:window-maximized="1"
     inkscape:current-layer="Layer_1"
     fit-margin-top="0"
     fit-margin-left="0"
     fit-margin-right="0"
     fit-margin-bottom="0" /><rect
     x="0"
     y="0"
     width="719.98846"
     height="238.83888"
     id="rect3"
     style="fill:#000000;fill-opacity:1" /><path
     d="m 558.45827,142.75782 c 2.1,9.9 9.7,25.59999 -0.1,33.39999 -5.09997,4.1 -12.39997,3.1 -17.49997,-1.2 -6.5,-5.3 -8.2,-16.09999 -9.7,-28.99999 -1.9,11.8 -4.6,20.99999 -6.8,24.59999 -4.9,8.1 -19.9,8.1 -47.9,-21.59999 8.3,-1.7 23.6,-5.7 23.5,-22.3 -0.1,-8.5 -18,-14.9 -32.6,-18.5 -4,24 -3.5,48.7 1.5,72.39999 -3.1,-16.29999 -8.4,-30.89999 -9.7,-49.69999 -9.8,2.9 -19.1,5.6 -44.6,3.3 l 30.7,-110.799996 -103.5,119.099996 c -4.5,-5.8 -2.5,-14.8 3.7,-18.9 l -4.1,-11.2 c -14.6,10.4 -8.7,21.3 -1.6,32.5 l -26.9,30.99999 c 38.7,3.8 40.6,-16.69999 29.7,-32.09999 l 90.4,-102.899996 -24.8,92.599996 c -11.6,-1.2 -24.6,-3.2 -42.9,-6.7 3.9,23.3 16.2,90.89999 21.1,113.19999 3.8,-15.7 14.6,-55.4 26.4,-98.29999 7.9,-0.5 13.7,-1.1 20.6,-2 5.5,-0.7 16.7,-2.7 23.4,-5.7 1.9,6.1 9.6,45.09999 12.5,50.69999 l 7.2,-1.6 c -1.7,-2.4 -3.7,-8.7 -4.8,-17.3 -1.2,-8.99999 -2.8,-33.29999 -1.5,-46.39999 8.3,-1.5 13.3,-1.3 16.9,3.4 3.5,4.7 3.7,11.4 1.1,16.6 -2.6,5.2 -9.6,6.6 -15.1,8.5 2.8,5.3 12.2,21.39999 20.9,25.49999 13.6,6.3 30.8,6.1 35,-7.3 1.7,9.1 13.4,19.8 22.6,18.7 9.19997,-1.1 17.09997,-10.3 16.69997,-19.6 -0.6,-11.39999 -4.3,-22.79999 -4.3,-22.79999 l -5.5,0.4 z"
     id="path5"
     inkscape:connector-curvature="0"
     style="fill:#ffffff" /><path
     d="m 292.2583,119.25782 c 4.7,7.6 8.2,15.9 10.5,24.6 1.2,4.5 1.9,9.2 1.1,13.8 -0.8,4.6 -3.6,8.99999 -7.9,10.89999 -2.7,1.2 -5.7,1.2 -8.6,0.7 -11.2,-2 -19.3,-12.49999 -22,-23.59999 -2.7,-11 -0.6,-19.4 1.1,-30.6 l -6.7,-0.1 c -21.1,39.4 -73.80001,58.59999 -104.60001,67.99999 -25.5,7.8 -53,5.7 -70.3,-7.3 -19.3,-14.49999 -19.7,-47.89999 -5.8,-78.599989 11.3,-24.799997 39,-50.299997 61,-61.999997 18.9,-10.1 54.4,-16.5 75.60001,-13.7 21,2.8 40.1,16.2 40.6,43 0.4,23.399997 0.5,41.899996 -26.5,73.999996 l 2.5,0.8 c 26,-25.2 31.7,-39 33.1,-70.099996 0.8,-18.3 -3.5,-30.6 -7.3,-36.5 -4.4,-7 -13.6,-16.4 -25.2,-19.3 -66.50001,-16.3000001 -137.40001,23 -175.50001,79.899997 -13.6,20.299999 -24.2,43.899999 -23,68.299999 1.1,24.39999 16.6,49.29999 40.3,55.29999 13.7,3.5 28.3,0.5 41.9,-3.5 52,-15.1 99.90001,-43.9 137.50001,-82.69999 -3.5,24.9 8.5,44.69999 26.6,48.19999 25.5,3.8 44.1,-22.99999 22.3,-65.79999 l -10.7,6.3 z"
     id="path7"
     inkscape:connector-curvature="0"
     style="fill:#ffffff" /><path
     d="m 405.6583,142.25782 c -8.9,32.49999 -17.6,62.69999 -22.4,74.89999 0,0 -10,-70.79999 -11.5,-74.09999 10.4,0.1 21.6,-0.1 33.9,-0.8 z"
     id="path9"
     inkscape:connector-curvature="0" /><path
     d="m 340.2583,146.05782 c 3.7,8.1 5.2,17.2 -1,20.89999 -3.2,1.9 -13.4,3.6 -20.7,3.2 0,0.1 20.3,-22.69999 21.7,-24.09999 z"
     id="path11"
     inkscape:connector-curvature="0" /><path
     d="m 652.95827,176.35781 14.4,-4.4 c 2,9.3 9.3,16.6 13.4,16.8 8.7,0.3 8.1,-7.1 2.3,-11.6 -7.5,-5.9 -11.6,-8.7 -12.4,-23.39999 -5.8,12.09999 -25.2,23.59999 -39.1,23.99999 -5.9,0.2 -9.2,-6.7 -11.9,-12 -0.7,7.8 -6.6,14.8 -14.1,16.8 -7.5,2 -16.1,-1 -20.7,-7.3 l -0.1,6.9 -11.4,-2.1 c 0.2,-1.8 3.4,-36.49999 3.6,-38.29999 0.5,13.4 4.1,33.19999 18,34.39999 15.5,1.3 24,-9 23.5,-38.69999 3.8,13.2 12.4,37.89999 23.8,35.79999 20.9,-3.8 35.1,-32.09999 41.3,-41.79999 -22.3,35.79999 9.3,40.69999 5.8,55.69999 -3.9,11.4 -32.5,6.4 -36.4,-10.8 z"
     id="path13"
     inkscape:connector-curvature="0"
     style="fill:#ffffff" /><flowRoot
     xml:space="preserve"
     id="flowRoot4435"
     style="font-style:normal;font-variant:normal;font-weight:normal;font-stretch:normal;font-size:15.87021542px;line-height:120.00000477%;font-family:'Open Sans';-inkscape-font-specification:'Open Sans';text-align:start;letter-spacing:0px;word-spacing:0px;writing-mode:lr-tb;text-anchor:start;fill:#000000;fill-opacity:1;stroke:none;stroke-width:1px;stroke-linecap:butt;stroke-linejoin:miter;stroke-opacity:1"
     transform="translate(1303.8346,-627.62716)"><flowRegion
       id="flowRegion4437"><rect
         id="rect4439"
         width="969.60242"
         height="736.08563"
         x="314.74005"
         y="823.85321" /></flowRegion><flowPara
       id="flowPara4441" /></flowRoot><flowRoot
     xml:space="preserve"
     id="flowRoot4459"
     style="font-style:normal;font-variant:normal;font-weight:normal;font-stretch:normal;font-size:15.87021542px;line-height:120.00000477%;font-family:'Open Sans';-inkscape-font-specification:'Open Sans';text-align:start;letter-spacing:1px;word-spacing:0px;writing-mode:lr-tb;text-anchor:start;fill:#000000;fill-opacity:1;stroke:none;stroke-width:1px;stroke-linecap:butt;stroke-linejoin:miter;stroke-opacity:1"
     transform="translate(1303.8346,-627.62716)"><flowRegion
       id="flowRegion4461"><rect
         id="rect4463"
         width="1127.1326"
         height="997.90717"
         x="-376.90738"
         y="856.92487" /></flowRegion><flowPara
       id="flowPara4465" /></flowRoot></svg>